<?xml version="1.0" encoding="utf-8"?>
<!-- Generator: Adobe Illustrator 23.0.3, SVG Export Plug-In . SVG Version: 6.00 Build 0)  -->
<svg version="1.1" id="Layer_1" xmlns="http://www.w3.org/2000/svg" xmlns:xlink="http://www.w3.org/1999/xlink" x="0px" y="0px"
	 viewBox="0 0 389.24 391.58" style="enable-background:new 0 0 389.24 391.58;" xml:space="preserve">
<style type="text/css">
	.st0{display:none;}
	.st1{display:inline;fill:#FFFFFF;}
	.st2{fill:#1D1D1B;}
	.st3{fill:#942134;}
</style>
<g class="st0">
	<path class="st1" d="M376.65,167.56h11.73l10.31,33.79h-11.13l-1.42-6.49h-8.82l-1.34,6.49h-11.28L376.65,167.56z M384.94,188.79
		L381.73,174l-3.21,14.78H384.94z"/>
	<path class="st1" d="M399.66,201.35l11.13-33.79h13.3l9.56,33.79h-11.13l-4.93-26.87l-6.65,26.87H399.66z"/>
	<path class="st1" d="M431.49,167.56h11.88l4.71,15.21c0.15,0.58,0.6,2.96,0.97,5.17c0.52-2.06,1.05-3.38,1.42-5.02l3.81-15.36
		h11.81l-9.94,24.13c-3.21,7.71-5.01,10.4-13.38,10.4c-1.12,0-2.39-0.11-4.11-0.26v-5.33c0.6,0.05,1.2,0.11,1.72,0.11
		c2.24,0,3.36-0.58,3.36-1.85c0-0.79-0.67-2.11-1.42-3.8L431.49,167.56z"/>
	<path class="st1" d="M468.4,167.56h15.62l4.26,14.36c0.15,0.53,0.6,3.22,1.57,7.92c0.97-4.75,1.57-7.44,1.72-8.02l4.18-14.26h15.54
		v33.79h-10.61l0.37-14.89c0.08-3.59,0.52-7.92,0.9-11.56l-7.85,26.45h-8.52l-7.92-26.45c0.22,3.48,0.75,7.71,0.82,11.19l0.45,15.26
		H468.4V167.56z"/>
	<path class="st1" d="M519.13,167.56h11.21v12.78h8.67v-12.78h11.21v33.79h-11.21v-14.04h-8.67v14.04h-11.21V167.56z"/>
	<path class="st1" d="M583.01,174.69l-10.69,26.66h-14.35v-33.79h11.21v13.99c0,2.32-0.75,7.81-1.2,10.82l9.27-24.81h11.26
		l12.58,33.79h-11.21"/>
</g>
<g>
	<rect x="-789.16" y="-739.09" class="st2" width="6.26" height="2.23"/>
</g>
<g>
	<g>
		<path class="st3" d="M277.22,0H111.78L2.02,296.63h119.62l19.23-64.22h101.34l20.56,64.22h125.94L277.22,0z M246.65,173.1
			l-0.2-0.03l0.06,0.67c-0.75,5.63-28.42,14.73-60.5,10.47c-32.11-4.29-56.47-20.33-55.72-25.96l0.2-0.64l-0.06-0.03l6.32-47.37
			l53.95,26.68c0.49,0.26,1.04,0.41,1.57,0.46c0.55,0.09,1.1,0.09,1.65-0.03l59.05-11.63L246.65,173.1z M283.92,151.35l-2.55,19.26
			c-0.46,3.31-3.48,5.6-6.79,5.16c-3.28-0.44-5.6-3.45-5.16-6.73l2.58-19.29c0.23-1.65,1.07-3.02,2.29-3.94l8.47,1.13
			C283.66,148.13,284.15,149.69,283.92,151.35z M281.51,143.14l-5.05-0.67l4.18-31.33l-26.42,5.19l-60.74,11.95L138,100.85
			l-31.5-15.6l95.19-18.53l87.02,42.84l-2.78,0.55L281.51,143.14z"/>
	</g>
	<g>
		<path d="M17.83,308.3h22.54l17.57,81.49H38.96l-2.42-15.66H21.52l-2.29,15.66H0L17.83,308.3z M34.51,359.49l-5.48-35.65
			l-5.48,35.65H34.51z"/>
		<path d="M59.59,389.79l18.97-81.49h22.67l16.3,81.49H98.55l-8.4-64.81l-11.33,64.81H59.59z"/>
		<path d="M113.83,308.3h20.25l8.02,36.67c0.25,1.4,1.02,7.13,1.66,12.48c0.89-4.97,1.78-8.15,2.42-12.1l6.49-37.05h20.12
			l-16.93,58.19c-5.48,18.59-8.53,25.08-22.79,25.08c-1.91,0-4.08-0.25-7-0.64v-12.86c1.02,0.13,2.04,0.25,2.93,0.25
			c3.82,0,5.73-1.4,5.73-4.46c0-1.91-1.15-5.09-2.42-9.17L113.83,308.3z"/>
		<path d="M176.73,308.3h26.61l7.26,34.63c0.25,1.27,1.02,7.77,2.67,19.1c1.66-11.46,2.67-17.95,2.93-19.35l7.13-34.38h26.48v81.49
			h-18.08l0.64-35.91c0.13-8.66,0.89-19.1,1.53-27.88l-13.37,63.79h-14.52L192.52,326c0.38,8.4,1.27,18.59,1.4,26.99l0.76,36.8
			h-17.95V308.3z"/>
		<path d="M263.18,308.3h19.1v30.81h14.77V308.3h19.1v81.49h-19.1v-33.87h-14.77v33.87h-19.1V308.3z"/>
		<path d="M329.39,308.3h19.1v33.74c0,5.6-1.27,18.84-2.04,26.1l15.79-59.85h26.99v81.49h-19.1V352.1c0-7.13,1.02-19.99,1.91-26.61
			l-18.21,64.3h-24.45V308.3z"/>
	</g>
</g>
</svg>
